<svg height="512pt" viewBox="0 -35 512 512" width="512pt" xmlns="http://www.w3.org/2000/svg"><path d="m504.503906 27.34375v398.144531c0 5.007813-4.0625 9.066407-9.070312 9.066407h-478.867188c-5.007812 0-9.070312-4.058594-9.070312-9.066407v-398.15625c0-10.953125 8.882812-19.835937 19.835937-19.835937h457.335938c10.949219 0 19.835937 8.886718 19.835937 19.847656zm0 0" fill="#fff"/><path d="m47.628906 434.554688v-95.007813h67.679688v27.203125h68.007812v-100.878906h116.164063v-37.40625h78.484375v-54.164063h84.726562v260.253907zm0 0" fill="#abffdb"/><path d="m504.503906 27.34375v70.933594h-497.003906v-70.933594c0-10.960938 8.882812-19.847656 19.835938-19.847656h457.332031c10.949219 0 19.835937 8.886718 19.835937 19.847656zm0 0" fill="#e4eaf8"/><path d="m504.5 82.410156h-497v-55.070312c0-10.957032 8.882812-19.839844 19.839844-19.839844h457.320312c10.957032 0 19.839844 8.882812 19.839844 19.839844zm0 0" fill="#ffc850"/><g fill="#48c397"><path d="m212.207031 299.890625c-4.105469.125-7.269531 3.703125-7.269531 7.8125v123.101563c0 4.140624 3.359375 7.5 7.5 7.5 4.144531 0 7.5-3.359376 7.5-7.5v-123.417969c0-4.21875-3.484375-7.625-7.730469-7.496094zm0 0"/><path d="m170.824219 389.015625c-4.105469.121094-7.269531 3.703125-7.269531 7.808594v33.980469c0 4.140624 3.359374 7.5 7.5 7.5 4.144531 0 7.5-3.359376 7.5-7.5v-34.292969c0-4.21875-3.480469-7.625-7.730469-7.496094zm0 0"/><path d="m129.441406 389.015625c-4.101562.121094-7.265625 3.703125-7.265625 7.808594v33.980469c0 4.140624 3.355469 7.5 7.5 7.5 4.140625 0 7.5-3.359376 7.5-7.5v-34.292969c0-4.21875-3.484375-7.625-7.734375-7.496094zm0 0"/><path d="m253.589844 299.890625c-4.105469.125-7.269532 3.703125-7.269532 7.8125v123.101563c0 4.140624 3.355469 7.5 7.5 7.5 4.140626 0 7.5-3.359376 7.5-7.5v-123.417969c0-4.21875-3.484374-7.621094-7.730468-7.496094zm0 0"/><path d="m88.0625 369.914062c-4.105469.125-7.269531 3.703126-7.269531 7.8125v53.078126c0 4.140624 3.359375 7.5 7.5 7.5s7.5-3.359376 7.5-7.5v-53.394532c0-4.21875-3.484375-7.621094-7.730469-7.496094zm0 0"/><path d="m419.117188 213.527344c-4.105469.125-7.269532 3.707031-7.269532 7.8125v209.464844c0 4.140624 3.355469 7.5 7.5 7.5 4.140625 0 7.5-3.359376 7.5-7.5v-209.777344c0-4.21875-3.484375-7.625-7.730468-7.5zm0 0"/><path d="m294.972656 299.890625c-4.105468.125-7.269531 3.703125-7.269531 7.8125v123.101563c0 4.140624 3.355469 7.5 7.5 7.5 4.140625 0 7.5-3.359376 7.5-7.5v-123.417969c0-4.21875-3.484375-7.621094-7.730469-7.496094zm0 0"/><path d="m377.734375 261.855469c-4.105469.121093-7.269531 3.703125-7.269531 7.808593v161.140626c0 4.140624 3.359375 7.5 7.5 7.5s7.5-3.359376 7.5-7.5v-161.453126c0-4.21875-3.484375-7.625-7.730469-7.496093zm0 0"/><path d="m336.351562 261.855469c-4.101562.121093-7.269531 3.703125-7.269531 7.808593v161.140626c0 4.140624 3.359375 7.5 7.5 7.5 4.144531 0 7.5-3.359376 7.5-7.5v-161.453126c0-4.21875-3.480469-7.625-7.730469-7.496093zm0 0"/></g><path d="m484.660156 0h-366.351562c-4.144532 0-7.5 3.359375-7.5 7.5s3.355468 7.5 7.5 7.5h366.351562c6.804688 0 12.339844 5.535156 12.339844 12.339844v91.375c0 4.144531 3.355469 7.5 7.5 7.5s7.5-3.355469 7.5-7.5v-91.375c0-15.074219-12.265625-27.339844-27.339844-27.339844zm0 0" fill="#474d54"/><path d="m15 27.339844c0-6.804688 5.535156-12.339844 12.339844-12.339844h60.351562c4.140625 0 7.5-3.359375 7.5-7.5s-3.359375-7.5-7.5-7.5h-60.351562c-15.074219 0-27.339844 12.265625-27.339844 27.339844v221.378906c0 4.140625 3.359375 7.5 7.5 7.5s7.5-3.359375 7.5-7.5zm0 0" fill="#474d54"/><path d="m66.660156 46.339844c0 4.144531 3.359375 7.5 7.5 7.5h267.53125c4.144532 0 7.503906-3.355469 7.503906-7.5 0-4.140625-3.359374-7.5-7.503906-7.5h-267.53125c-4.140625 0-7.5 3.359375-7.5 7.5zm0 0" fill="#fff"/><path d="m385.464844 45.605469v-1.300781c0-4.144532-3.359375-7.5-7.5-7.5-4.144532 0-7.5 3.355468-7.5 7.5v1.300781c0 4.144531 3.355468 7.5 7.5 7.5 4.140625 0 7.5-3.355469 7.5-7.5zm0 0" fill="#ff8031"/><path d="m415.402344 45.605469v-1.300781c0-4.144532-3.355469-7.5-7.5-7.5-4.144532 0-7.5 3.355468-7.5 7.5v1.300781c0 4.144531 3.355468 7.5 7.5 7.5 4.144531 0 7.5-3.355469 7.5-7.5zm0 0" fill="#ff8031"/><path d="m445.339844 45.605469v-1.300781c0-4.144532-3.355469-7.5-7.5-7.5-4.144532 0-7.5 3.355468-7.5 7.5v1.300781c0 4.144531 3.355468 7.5 7.5 7.5 4.144531 0 7.5-3.355469 7.5-7.5zm0 0" fill="#ff8031"/><path d="m239.320312 142.429688v-1.6875c0-4.144532-3.355468-7.5-7.5-7.5-4.140624 0-7.5 3.355468-7.5 7.5v1.6875c0 4.140624 3.359376 7.5 7.5 7.5 4.144532 0 7.5-3.359376 7.5-7.5zm0 0" fill="#abb0b7"/><path d="m278.09375 142.429688v-1.6875c0-4.144532-3.355469-7.5-7.5-7.5-4.140625 0-7.5 3.355468-7.5 7.5v1.6875c0 4.140624 3.359375 7.5 7.5 7.5 4.144531 0 7.5-3.359376 7.5-7.5zm0 0" fill="#abb0b7"/><path d="m316.867188 142.429688v-1.6875c0-4.144532-3.355469-7.5-7.5-7.5-4.140626 0-7.5 3.355468-7.5 7.5v1.6875c0 4.140624 3.359374 7.5 7.5 7.5 4.144531 0 7.5-3.359376 7.5-7.5zm0 0" fill="#abb0b7"/><path d="m504.5 141.832031c-4.144531 0-7.5 3.359375-7.5 7.5v276.15625c0 .863281-.703125 1.566407-1.566406 1.566407h-478.867188c-.863281 0-1.566406-.703126-1.566406-1.566407v-146.152343c0-4.144532-3.359375-7.5-7.5-7.5s-7.5 3.355468-7.5 7.5v146.152343c0 9.136719 7.433594 16.566407 16.566406 16.566407h478.867188c9.132812 0 16.566406-7.429688 16.566406-16.566407v-276.15625c0-4.140625-3.359375-7.5-7.5-7.5zm0 0" fill="#474d54"/></svg>