<svg height="512pt" viewBox="0 -33 512.001 512" width="512pt" xmlns="http://www.w3.org/2000/svg"><path d="m167.347656 438.140625h-149.800781c-5.550781 0-10.046875-4.496094-10.046875-10.042969v-410.550781c0-5.546875 4.496094-10.046875 10.046875-10.046875h149.800781c5.546875 0 10.042969 4.5 10.042969 10.046875v410.550781c0 5.546875-4.496094 10.042969-10.042969 10.042969zm0 0" fill="#abffdb"/><path d="m494.453125 105.832031h-256.871094c-5.550781 0-10.046875-4.5-10.046875-10.046875v-78.238281c0-5.550781 4.496094-10.046875 10.046875-10.046875h256.871094c5.550781 0 10.046875 4.496094 10.046875 10.046875v78.238281c0 5.550782-4.496094 10.046875-10.046875 10.046875zm0 0" fill="#ffc850"/><path d="m336.320312 438.140625h-100.992187c-5.546875 0-10.046875-4.496094-10.046875-10.042969v-100.992187c0-5.550781 4.5-10.046875 10.046875-10.046875h100.992187c5.550782 0 10.046876 4.496094 10.046876 10.046875v100.992187c0 5.546875-4.496094 10.042969-10.046876 10.042969zm0 0" fill="#abffdb"/><path d="m494.453125 438.140625h-100.992187c-5.546876 0-10.046876-4.496094-10.046876-10.042969v-100.992187c0-5.550781 4.5-10.046875 10.046876-10.046875h100.992187c5.550781 0 10.046875 4.496094 10.046875 10.046875v100.992187c0 5.546875-4.496094 10.042969-10.046875 10.042969zm0 0" fill="#92e0c0"/><g fill="#474d54"><path d="m167.347656 0h-149.800781c-9.675781 0-17.546875 7.871094-17.546875 17.546875v410.550781c0 9.675782 7.871094 17.546875 17.546875 17.546875h149.800781c9.671875 0 17.542969-7.871093 17.542969-17.546875v-250.96875c0-4.140625-3.355469-7.5-7.5-7.5-4.140625 0-7.5 3.359375-7.5 7.5v250.96875c0 1.402344-1.140625 2.546875-2.542969 2.546875h-149.800781c-1.40625 0-2.546875-1.144531-2.546875-2.546875v-410.550781c0-1.40625 1.140625-2.546875 2.546875-2.546875h149.800781c1.402344 0 2.542969 1.140625 2.542969 2.546875v128.964844c0 4.144531 3.359375 7.5 7.5 7.5 4.144531 0 7.5-3.355469 7.5-7.5v-128.964844c0-9.675781-7.871094-17.546875-17.542969-17.546875zm0 0"/><path d="m494.453125 0h-21.476563c-4.144531 0-7.5 3.359375-7.5 7.5s3.355469 7.5 7.5 7.5h21.476563c1.40625 0 2.546875 1.140625 2.546875 2.546875v78.238281c0 1.40625-1.140625 2.546875-2.546875 2.546875h-256.871094c-1.40625 0-2.546875-1.140625-2.546875-2.546875v-78.238281c0-1.40625 1.140625-2.546875 2.546875-2.546875h204.777344c4.140625 0 7.5-3.359375 7.5-7.5s-3.359375-7.5-7.5-7.5h-204.777344c-9.675781 0-17.546875 7.871094-17.546875 17.546875v78.238281c0 9.675782 7.871094 17.546875 17.546875 17.546875h256.871094c9.675781 0 17.546875-7.871093 17.546875-17.546875v-78.238281c0-9.675781-7.871094-17.546875-17.546875-17.546875zm0 0"/><path d="m227.535156 155.429688h269.386719c4.144531 0 7.5-3.359376 7.5-7.5 0-4.144532-3.355469-7.5-7.5-7.5h-269.386719c-4.140625 0-7.5 3.355468-7.5 7.5 0 4.140624 3.359375 7.5 7.5 7.5zm0 0"/><path d="m227.535156 198.300781h269.386719c4.144531 0 7.5-3.359375 7.5-7.5 0-4.144531-3.355469-7.5-7.5-7.5h-269.386719c-4.140625 0-7.5 3.355469-7.5 7.5 0 4.140625 3.359375 7.5 7.5 7.5zm0 0"/><path d="m227.535156 241.171875h269.386719c4.144531 0 7.5-3.359375 7.5-7.5 0-4.144531-3.355469-7.5-7.5-7.5h-269.386719c-4.140625 0-7.5 3.355469-7.5 7.5 0 4.140625 3.359375 7.5 7.5 7.5zm0 0"/><path d="m227.535156 284.042969h269.386719c4.144531 0 7.5-3.359375 7.5-7.5 0-4.144531-3.355469-7.5-7.5-7.5h-269.386719c-4.140625 0-7.5 3.355469-7.5 7.5 0 4.140625 3.359375 7.5 7.5 7.5zm0 0"/><path d="m336.320312 309.558594h-100.992187c-9.675781 0-17.546875 7.871094-17.546875 17.546875v100.992187c0 9.675782 7.871094 17.546875 17.546875 17.546875h15.695313c4.140624 0 7.5-3.359375 7.5-7.5 0-4.144531-3.359376-7.5-7.5-7.5h-15.695313c-1.402344 0-2.546875-1.144531-2.546875-2.546875v-93.429687l95.976562 95.976562h-47.117187c-4.140625 0-7.5 3.355469-7.5 7.5 0 4.140625 3.359375 7.5 7.5 7.5h54.679687c9.675782 0 17.546876-7.871093 17.546876-17.546875v-100.992187c0-9.675781-7.871094-17.546875-17.546876-17.546875zm2.546876 17.546875v92.433593l-94.980469-94.980468h92.433593c1.40625 0 2.546876 1.140625 2.546876 2.546875zm0 0"/><path d="m494.453125 309.558594h-100.992187c-9.675782 0-17.546876 7.871094-17.546876 17.546875v100.992187c0 9.675782 7.871094 17.546875 17.546876 17.546875h100.992187c9.675781 0 17.546875-7.871093 17.546875-17.546875v-100.992187c0-9.675781-7.871094-17.546875-17.546875-17.546875zm2.546875 118.539062c0 1.402344-1.140625 2.542969-2.546875 2.542969h-100.992187c-1.402344 0-2.546876-1.140625-2.546876-2.542969v-100.992187c0-1.40625 1.144532-2.546875 2.546876-2.546875h100.992187c1.40625 0 2.546875 1.140625 2.546875 2.546875zm0 0"/></g><path d="m319.140625 57.019531v1.222657c0 4.140624 3.359375 7.5 7.5 7.5 4.144531 0 7.5-3.359376 7.5-7.5v-1.222657c0-4.140625-3.355469-7.5-7.5-7.5-4.140625 0-7.5 3.359375-7.5 7.5zm0 0" fill="#fff"/><path d="m358.519531 57.019531v1.222657c0 4.140624 3.355469 7.5 7.5 7.5 4.140625 0 7.5-3.359376 7.5-7.5v-1.222657c0-4.140625-3.359375-7.5-7.5-7.5-4.144531 0-7.5 3.359375-7.5 7.5zm0 0" fill="#fff"/><path d="m397.894531 57.019531v1.222657c0 4.140624 3.355469 7.5 7.5 7.5 4.140625 0 7.5-3.359376 7.5-7.5v-1.222657c0-4.140625-3.359375-7.5-7.5-7.5-4.144531 0-7.5 3.359375-7.5 7.5zm0 0" fill="#fff"/><path d="m61.445312 337.417969c1.464844 1.460937 3.382813 2.195312 5.304688 2.195312 1.917969 0 3.839844-.730469 5.300781-2.195312 2.929688-2.929688 2.929688-7.679688 0-10.609375l-14.90625-14.90625c-2.929687-2.929688-7.679687-2.929688-10.605469 0-2.929687 2.929687-2.929687 7.679687 0 10.605468zm0 0" fill="#48c397"/><path d="m127.609375 360.78125h-75.769531c-4.140625 0-7.5 3.355469-7.5 7.5 0 4.140625 3.359375 7.5 7.5 7.5h75.769531c4.144531 0 7.5-3.359375 7.5-7.5 0-4.144531-3.355469-7.5-7.5-7.5zm0 0" fill="#48c397"/><path d="m127.609375 391.152344h-75.769531c-4.140625 0-7.5 3.359375-7.5 7.5 0 4.144531 3.359375 7.5 7.5 7.5h75.769531c4.144531 0 7.5-3.355469 7.5-7.5 0-4.140625-3.355469-7.5-7.5-7.5zm0 0" fill="#48c397"/></svg>